<svg xmlns="http://www.w3.org/2000/svg" xmlns:xlink="http://www.w3.org/1999/xlink" version="1.1" x="0px" y="0px" viewBox="0 0 47 47" enable-background="new 0 0 47 47" xml:space="preserve" fill="#fff"><path d="M17.612,1.11c-0.579,0-1.036,0.313-1.478,0.617C15.738,2,15.363,2.256,14.954,2.256c-0.659,0-0.965-0.069-1.32-0.15  c-0.386-0.087-0.825-0.187-1.651-0.187c-0.707,0-1.05-0.032-1.414-0.065c-0.381-0.035-0.776-0.071-1.552-0.071  c-0.428,0-0.813-0.188-1.221-0.388c-0.427-0.208-0.868-0.424-1.38-0.424c-0.481,0-0.926,0.195-1.321,0.579  c-1.052,1.024-0.25,2.106,0.18,2.688c0.303,0.41,0.59,0.797,0.59,1.179c0,0.445-0.155,0.626-0.436,0.956  C5.093,6.766,4.633,7.304,4.633,8.302c0,0.851,0.162,1.299,0.304,1.695c0.12,0.333,0.215,0.597,0.215,1.186  c0,0.38-0.043,0.648-0.081,0.885c-0.121,0.751-0.127,1.272,0.805,2.174c0.335,0.325,0.797,0.699,1.392,0.699  c0.31,0,0.568-0.099,0.795-0.187c0.257-0.099,0.523-0.201,0.958-0.201c0.71,0,1.065,0.031,1.42,0.063  c0.381,0.034,0.776,0.068,1.552,0.068c0.555,0,0.797,0.128,1.132,0.306c0.404,0.214,0.906,0.48,1.834,0.48  c0.362,0,0.661,0.03,0.923,0.056c0.247,0.024,0.467,0.044,0.675,0.044c0.75,0,1.32-0.258,1.97-0.89  c1.111-1.081,0.838-1.912,0.549-2.792c-0.084-0.257-0.183-0.555-0.266-0.916c-0.155-0.675-0.354-1.078-0.514-1.401  c-0.19-0.385-0.305-0.618-0.305-1.28c0-0.438,0.158-0.618,0.446-0.946c0.345-0.394,0.818-0.932,0.818-1.935  c0-0.4,0.078-0.755,0.153-1.099c0.167-0.767,0.376-1.721-0.613-2.679C18.438,1.287,18.04,1.11,17.612,1.11z M17.943,3.993  c-0.083,0.382-0.188,0.857-0.188,1.419c0,0.438-0.158,0.618-0.446,0.945c-0.345,0.394-0.818,0.932-0.818,1.935  c0,1.013,0.234,1.486,0.46,1.944c0.145,0.293,0.281,0.569,0.397,1.073c0.095,0.414,0.206,0.754,0.303,1.048  c0.254,0.775,0.27,0.821-0.17,1.249c-0.443,0.431-0.671,0.465-0.924,0.465c-0.163,0-0.334-0.018-0.528-0.037  c-0.303-0.03-0.65-0.063-1.07-0.063c-0.555,0-0.797-0.128-1.132-0.306c-0.404-0.214-0.906-0.48-1.834-0.48  c-0.71,0-1.065-0.031-1.42-0.063c-0.381-0.034-0.776-0.068-1.552-0.068c-0.712,0-1.184,0.181-1.495,0.3  c-0.093,0.036-0.22,0.084-0.246,0.088c-0.004-0.001-0.105-0.029-0.36-0.277c-0.438-0.424-0.438-0.424-0.368-0.859  c0.042-0.263,0.1-0.623,0.1-1.123c0-0.851-0.162-1.299-0.304-1.694C6.228,9.154,6.133,8.891,6.133,8.302  c0-0.445,0.155-0.626,0.436-0.956c0.336-0.393,0.795-0.932,0.795-1.929c0-0.877-0.49-1.54-0.884-2.072  C6.331,3.144,6.082,2.807,6.071,2.71c0,0,0.013-0.029,0.07-0.085c0.159-0.154,0.24-0.154,0.275-0.154  c0.165,0,0.435,0.132,0.72,0.271c0.492,0.241,1.104,0.541,1.88,0.541c0.707,0,1.051,0.032,1.415,0.065  c0.381,0.035,0.776,0.071,1.552,0.071c0.659,0,0.965,0.069,1.32,0.15c0.386,0.087,0.825,0.187,1.651,0.187  c0.874,0,1.542-0.458,2.029-0.792c0.206-0.141,0.516-0.354,0.629-0.354c0.006,0,0.054,0.018,0.14,0.101  C18.127,3.074,18.103,3.261,17.943,3.993z"/><path d="M22.306,8.979c0.712,0,1.044,0.083,1.428,0.18c0.42,0.106,0.896,0.226,1.795,0.226c1.06,0,1.618-0.424,2.067-0.766  c0.364-0.277,0.605-0.46,1.159-0.46c0.69,0,1.013,0.103,1.386,0.221c0.431,0.137,0.918,0.292,1.841,0.292  c0.856,0,1.292-0.058,1.713-0.114c0.39-0.052,0.757-0.101,1.515-0.101c0.468,0,0.68,0.198,1.075,0.61  c0.435,0.452,1.03,1.071,2.158,1.071c1.052,0,1.609-0.406,2.058-0.731c0.367-0.268,0.61-0.444,1.175-0.444  c0.414,0,0.75-0.336,0.75-0.75s-0.336-0.75-0.75-0.75c-1.052,0-1.609,0.406-2.058,0.731c-0.367,0.268-0.61,0.444-1.175,0.444  c-0.469,0-0.68-0.198-1.076-0.611c-0.435-0.452-1.03-1.07-2.157-1.07c-0.857,0-1.292,0.058-1.714,0.114  c-0.389,0.052-0.757,0.101-1.514,0.101c-0.69,0-1.013-0.103-1.386-0.221c-0.431-0.137-0.918-0.292-1.841-0.292  c-1.06,0-1.618,0.424-2.067,0.766c-0.364,0.277-0.605,0.46-1.159,0.46c-0.713,0-1.045-0.083-1.429-0.18  c-0.42-0.106-0.896-0.226-1.794-0.226c-0.414,0-0.75,0.336-0.75,0.75S21.892,8.979,22.306,8.979z"/><path d="M14.156,5.256c-0.364-0.193-0.819-0.054-1.014,0.312c-0.522,0.988-0.773,1.487-1.023,1.987  c-0.168,0.336-0.343,0.683-0.596,1.172c-0.049-0.036-0.097-0.07-0.144-0.104c-0.202-0.145-0.404-0.291-0.796-0.598  c-0.327-0.255-0.798-0.2-1.053,0.126C9.274,8.477,9.331,8.948,9.656,9.204c0.417,0.327,0.632,0.482,0.847,0.637  c0.202,0.145,0.404,0.291,0.795,0.597c0.018,0.014,0.039,0.019,0.058,0.031c0.024,0.017,0.041,0.041,0.067,0.055  c0.021,0.011,0.043,0.007,0.063,0.016c0.049,0.02,0.099,0.029,0.15,0.038c0.046,0.009,0.09,0.034,0.137,0.034  c0.211,0,0.398-0.111,0.542-0.272c0.011-0.012,0.026-0.016,0.036-0.028c0.004-0.006,0.005-0.013,0.009-0.019  c0.022-0.03,0.058-0.045,0.077-0.08c0.522-0.988,0.773-1.487,1.023-1.987c0.247-0.492,0.493-0.984,1.008-1.957  C14.661,5.903,14.521,5.449,14.156,5.256z"/><path d="M19.333,20.601c0-0.383,0.056-0.716,0.11-1.038c0.134-0.8,0.286-1.707-0.711-2.673c-0.426-0.413-0.875-0.613-1.375-0.613  c-0.458,0-0.852,0.171-1.232,0.336c-0.379,0.165-0.737,0.32-1.17,0.32c-0.737,0-1.106-0.005-1.475-0.011  c-0.374-0.005-0.748-0.011-1.497-0.011c-0.662,0-0.97-0.066-1.326-0.142c-0.384-0.082-0.819-0.175-1.64-0.175  c-0.43,0-0.802-0.11-1.162-0.217c-0.35-0.104-0.711-0.211-1.104-0.211c-0.568,0-1.074,0.224-1.547,0.684  c-1.031,1.002-0.395,2.01-0.015,2.612c0.243,0.385,0.472,0.748,0.472,1.144c0,0.492-0.143,0.703-0.358,1.023  c-0.274,0.406-0.615,0.911-0.615,1.862c0,0.931,0.304,1.43,0.549,1.831c0.199,0.325,0.33,0.54,0.33,1.049  c0,0.412-0.11,0.667-0.227,0.937c-0.281,0.649-0.457,1.306,0.465,2.198c0.274,0.266,0.704,0.619,1.274,0.619  c0.408,0,0.717-0.176,0.99-0.331c0.285-0.162,0.532-0.303,0.954-0.303c0.589,0,0.854,0.114,1.19,0.258  c0.394,0.169,0.885,0.38,1.782,0.38c0.795,0,1.199-0.058,1.589-0.114c0.354-0.051,0.689-0.099,1.377-0.099  c0.43,0,0.775,0.163,1.141,0.336c0.372,0.176,0.756,0.356,1.216,0.356c0.483,0,0.922-0.197,1.34-0.605  c1.192-1.159,0.935-2.089,0.609-3.266c-0.055-0.2-0.116-0.42-0.177-0.662c-0.188-0.754-0.48-1.169-0.715-1.503  c-0.237-0.337-0.368-0.523-0.368-1.091c0-0.427,0.165-0.607,0.465-0.932C18.834,22.154,19.333,21.614,19.333,20.601z M17.963,19.315  c-0.058,0.346-0.13,0.778-0.13,1.286c0,0.427-0.165,0.606-0.465,0.932c-0.364,0.395-0.862,0.936-0.862,1.949  c0,1.043,0.341,1.527,0.642,1.954c0.197,0.279,0.366,0.521,0.487,1.003c0.064,0.256,0.128,0.487,0.187,0.698  c0.3,1.084,0.346,1.251-0.209,1.792c-0.123,0.119-0.222,0.18-0.294,0.18c-0.125,0-0.344-0.104-0.576-0.213  c-0.428-0.202-1.016-0.479-1.781-0.479c-0.795,0-1.199,0.058-1.59,0.114c-0.354,0.051-0.688,0.099-1.376,0.099  c-0.589,0-0.854-0.114-1.19-0.258c-0.394-0.169-0.885-0.38-1.782-0.38c-0.82,0-1.347,0.301-1.696,0.499  c-0.093,0.054-0.221,0.126-0.219,0.139c0,0-0.081-0.027-0.259-0.2c-0.194-0.188-0.236-0.262-0.234-0.263  c0.008-0.048,0.062-0.171,0.101-0.262c0.14-0.322,0.351-0.81,0.351-1.533c0-0.931-0.304-1.429-0.549-1.83  c-0.198-0.325-0.33-0.54-0.33-1.05c0-0.492,0.143-0.703,0.358-1.023c0.274-0.406,0.615-0.911,0.615-1.862  c0-0.83-0.406-1.474-0.703-1.944c-0.12-0.189-0.32-0.507-0.313-0.603c0,0,0.013-0.045,0.104-0.134  c0.266-0.259,0.419-0.259,0.501-0.259c0.176,0,0.409,0.069,0.678,0.149c0.419,0.124,0.94,0.278,1.588,0.278  c0.663,0,0.97,0.066,1.327,0.142c0.384,0.082,0.819,0.175,1.64,0.175c0.737,0,1.106,0.005,1.475,0.011  c0.374,0.005,0.748,0.011,1.497,0.011c0.745,0,1.312-0.247,1.768-0.445c0.25-0.109,0.487-0.212,0.634-0.212  c0.037,0,0.135,0,0.332,0.19C18.119,18.385,18.083,18.601,17.963,19.315z"/><path d="M41.676,23.385c-0.562,0-0.804-0.179-1.171-0.45c-0.448-0.332-1.007-0.744-2.062-0.744c-0.855,0-1.29,0.054-1.71,0.107  c-0.393,0.049-0.762,0.095-1.523,0.095c-0.773,0-1.149-0.034-1.547-0.069c-0.413-0.037-0.841-0.076-1.681-0.076  c-0.896,0-1.37,0.114-1.789,0.215c-0.387,0.093-0.72,0.174-1.438,0.174c-0.737,0-1.096-0.067-1.475-0.139  c-0.41-0.077-0.876-0.164-1.752-0.164c-0.771,0-1.146-0.035-1.542-0.072c-0.414-0.039-0.841-0.079-1.682-0.079  c-0.414,0-0.75,0.336-0.75,0.75s0.336,0.75,0.75,0.75c0.771,0,1.145,0.035,1.541,0.072c0.414,0.039,0.841,0.079,1.682,0.079  c0.737,0,1.096,0.067,1.475,0.139c0.41,0.077,0.876,0.164,1.752,0.164c0.896,0,1.37-0.114,1.789-0.215  c0.387-0.093,0.72-0.174,1.438-0.174c0.772,0,1.148,0.034,1.546,0.069c0.413,0.037,0.841,0.076,1.682,0.076  c0.854,0,1.289-0.054,1.709-0.107c0.393-0.049,0.763-0.095,1.524-0.095c0.562,0,0.804,0.179,1.171,0.45  c0.448,0.332,1.007,0.744,2.062,0.744c0.414,0,0.75-0.336,0.75-0.75S42.09,23.385,41.676,23.385z"/><path d="M14.298,20.521c-0.364-0.192-0.82-0.053-1.014,0.312c-0.509,0.962-0.78,1.414-1.051,1.865  c-0.192,0.32-0.391,0.653-0.662,1.143l-0.911-0.723c-0.327-0.257-0.797-0.2-1.053,0.125c-0.256,0.326-0.2,0.797,0.125,1.054  l1.608,1.276c0.021,0.017,0.046,0.023,0.069,0.037c0.017,0.011,0.026,0.027,0.044,0.036c0.013,0.007,0.028,0.004,0.042,0.011  c0.099,0.045,0.203,0.076,0.309,0.076c0.123,0,0.242-0.037,0.352-0.096c0.036-0.02,0.062-0.05,0.094-0.075  c0.049-0.037,0.104-0.064,0.144-0.115c0.019-0.023,0.023-0.052,0.039-0.076c0.009-0.016,0.027-0.021,0.035-0.037  c0.509-0.962,0.78-1.413,1.051-1.864c0.281-0.469,0.563-0.937,1.091-1.935C14.803,21.168,14.664,20.714,14.298,20.521z"/><path d="M18.263,41.469c-0.13-0.51-0.04-0.705,0.141-1.093c0.175-0.376,0.414-0.891,0.414-1.705c0-0.853-0.163-1.301-0.306-1.696  c-0.121-0.333-0.216-0.596-0.216-1.184c0-0.4,0.165-0.686,0.355-1.016c0.303-0.525,0.81-1.404-0.212-2.394  c-0.39-0.379-0.788-0.563-1.217-0.563c-0.501,0-0.886,0.255-1.227,0.48c-0.338,0.224-0.63,0.417-1.042,0.417  c-0.503,0-0.709-0.147-1.05-0.391c-0.418-0.299-0.938-0.67-1.921-0.67c-0.91,0-1.405,0.234-1.803,0.422  c-0.342,0.161-0.589,0.278-1.163,0.278c-0.434,0-0.7-0.101-0.982-0.207c-0.24-0.091-0.512-0.193-0.833-0.193  c-0.612,0-1.071,0.371-1.403,0.693c-0.931,0.905-0.921,1.451-0.794,2.242c0.039,0.245,0.083,0.523,0.083,0.904  c0,0.739,0.018,1.108,0.035,1.478c0.017,0.352,0.033,0.704,0.033,1.407c0,0.764,0.045,1.151,0.088,1.526  c0.04,0.349,0.078,0.677,0.078,1.354c0,0.414-0.106,0.707-0.22,1.017c-0.212,0.583-0.504,1.382,0.487,2.341  c0.542,0.525,1.035,0.76,1.601,0.76c0.285,0,0.548-0.062,0.802-0.12c0.3-0.069,0.61-0.142,1.032-0.142  c0.778,0,1.173-0.037,1.555-0.072c0.364-0.033,0.708-0.065,1.417-0.065c0.606,0,0.877,0.102,1.22,0.229  c0.407,0.152,0.869,0.325,1.746,0.325c0.396,0,0.729,0.054,1.052,0.104c0.293,0.047,0.57,0.092,0.863,0.092  c0.677,0,1.254-0.255,1.816-0.803c1.079-1.049,0.513-1.955,0.138-2.555C18.613,42.326,18.39,41.97,18.263,41.469z M17.645,44.152  c-0.358,0.348-0.577,0.377-0.771,0.377c-0.196,0-0.399-0.036-0.626-0.072c-0.345-0.056-0.773-0.124-1.289-0.124  c-0.606,0-0.877-0.102-1.221-0.229c-0.407-0.152-0.869-0.325-1.746-0.325c-0.778,0-1.173,0.037-1.555,0.072  c-0.364,0.033-0.708,0.065-1.417,0.065c-0.593,0-1.042,0.104-1.371,0.181C7.463,44.14,7.3,44.178,7.188,44.178  c-0.068,0-0.21,0-0.557-0.337c-0.292-0.282-0.292-0.282-0.122-0.75c0.131-0.359,0.311-0.851,0.311-1.53  c0-0.763-0.045-1.15-0.088-1.525c-0.04-0.349-0.078-0.677-0.078-1.354c0-0.739-0.018-1.108-0.035-1.478  c-0.017-0.352-0.033-0.704-0.033-1.407c0-0.5-0.059-0.87-0.103-1.141c-0.079-0.493-0.08-0.503,0.359-0.93  C7.1,33.475,7.2,33.456,7.2,33.456c0.048,0,0.19,0.054,0.304,0.097c0.34,0.128,0.805,0.304,1.512,0.304  c0.91,0,1.405-0.234,1.804-0.422c0.342-0.161,0.589-0.278,1.163-0.278c0.503,0,0.709,0.147,1.05,0.391  c0.418,0.299,0.938,0.67,1.921,0.67c0.864,0,1.445-0.386,1.87-0.667c0.133-0.088,0.333-0.221,0.383-0.232  c0.001,0,0.062,0.019,0.188,0.142c0.118,0.114,0.147,0.176,0.151,0.176c-0.009,0.069-0.121,0.262-0.195,0.391  c-0.234,0.406-0.556,0.963-0.556,1.766c0,0.852,0.163,1.3,0.306,1.695c0.121,0.333,0.216,0.596,0.216,1.185  c0,0.482-0.121,0.743-0.274,1.073c-0.221,0.476-0.496,1.067-0.234,2.095c0.185,0.727,0.51,1.247,0.748,1.628  c0.107,0.17,0.253,0.404,0.263,0.467C17.819,43.935,17.797,44.004,17.645,44.152z"/><path d="M41.676,37.469c-1.044,0-1.6,0.389-2.046,0.7c-0.37,0.259-0.614,0.43-1.187,0.43c-0.915,0-1.398,0.14-1.825,0.263  c-0.379,0.108-0.706,0.203-1.408,0.203c-0.604,0-0.869-0.155-1.235-0.369c-0.438-0.257-0.982-0.575-1.992-0.575  c-0.868,0-1.309,0.072-1.735,0.143c-0.384,0.063-0.746,0.123-1.491,0.123c-0.649,0-0.941-0.129-1.312-0.291  c-0.424-0.187-0.951-0.418-1.915-0.418c-0.703,0-1.031-0.092-1.41-0.197c-0.424-0.118-0.905-0.252-1.813-0.252  c-0.414,0-0.75,0.336-0.75,0.75s0.336,0.75,0.75,0.75c0.703,0,1.031,0.092,1.41,0.197c0.423,0.118,0.905,0.252,1.813,0.252  c0.649,0,0.941,0.129,1.312,0.291c0.424,0.187,0.951,0.418,1.915,0.418c0.868,0,1.309-0.072,1.735-0.143  c0.384-0.063,0.746-0.123,1.491-0.123c0.604,0,0.868,0.155,1.234,0.369c0.438,0.257,0.982,0.575,1.993,0.575  c0.914,0,1.397-0.14,1.824-0.262c0.379-0.109,0.706-0.204,1.409-0.204c1.044,0,1.6-0.389,2.046-0.7  c0.37-0.259,0.614-0.43,1.187-0.43c0.414,0,0.75-0.336,0.75-0.75S42.09,37.469,41.676,37.469z"/></svg>